<?xml version="1.0" encoding="UTF-8"?>
<svg id="Layer_2" data-name="Layer 2" xmlns="http://www.w3.org/2000/svg" viewBox="0 0 704.37 704.37">
  <defs>
    <style>
      .cls-1 {
        fill: #fff;
        stroke: #f66733;
        stroke-miterlimit: 10;
        stroke-width: 12px;
      }

      .cls-2 {
        fill: #f66733;
      }
    </style>
  </defs>
  <g id="Layer_1-2" data-name="Layer 1">
    <g>
      <circle class="cls-1" cx="352.18" cy="352.18" r="346.18"/>
      <g id="n5AtHv.tif">
        <g>
          <path class="cls-2" d="M280.63,154.59h129.73v-21.46c0-2.32,4.91-13.1,6.55-15.41,11.93-16.77,35.71-20.96,52.24-8.46,15.36,11.61,15.95,27.35,15.05,45.32h15.47c11.96,0,30.44,18.44,30.44,30.44v206.09l47.42-46.88c38.13-26.63,79.87,21.29,48.89,55.88l-95.79,95.82-.78,76.07c-3.01,16.55-16.33,29.08-33.14,30.73H196.27c-17.89-.7-32.55-14.67-34.37-32.49l-.04-303.4c.57-8.58,11.42-8.61,12.01,0l-.05,301.45c.57,11.94,10.52,21.88,22.45,22.46l300.41-.03c8,.34,21.45-11.98,21.45-19.47v-62.38l-33.02,32.35-71.74,26.13c-16.32-1.35,3.1-26.09,2.97-35.53h-89.31c-3.1,0-6.38-10.57,1.02-11.95l93.14-.16,13.11-33.3,83.62-83.04.12-216.28c-3.09-17.18-17.87-22.42-33.84-20.54v21.46c0,2.84-3.99,4.3-6.43,4.55-19.11,1.94-41.47-1.57-60.95-.04-2.18.48-6.47-2.66-6.47-4.51v-21.46h-129.73v21.46c0,3.07-4.95,4.31-7.44,4.54-18.99,1.76-40.65-1.42-59.94-.03-2.18.48-6.47-2.66-6.47-4.51v-21.46c-11.69-.97-23.5.65-29.76,11.65-6.99,12.28.13,44.56-4.7,50.18-4.43,5.16-9.91.91-10.49-5.41-.88-9.63-.94-34.7,1.57-43.43,3.06-10.64,17.43-24.98,28.91-24.98h14.47c-.13-14.16-1.53-26.95,7.57-38.84,17.07-22.3,53.79-17.38,63.76,8.91.56,1.48,2.51,7.47,2.51,8.47v21.46ZM268.66,180.54v-46.41c0-11.81-15.55-21.01-26.49-20.5-9.74.46-23.41,10.19-23.41,20.5v46.41h49.9ZM422.34,134.13v46.41h49.9v-46.41c0-2.53-5.62-11.48-7.77-13.48-14.17-13.18-39.23-5.06-42.13,13.48ZM598.77,348.43c-13.54.74-23.18,14.87-31.67,24.09l35.22,34.5c10.7-11.3,24.21-18.64,22.57-36.35-1.17-12.64-13.39-22.93-26.12-22.24ZM557.69,381.21l-110.96,109.72c-.67.75-.4,1.21,0,1.98.72,1.4,11.99,12.02,13.03,12.02l110.83-109.83c.93-1.16.11-1.64-.5-2.52-1.04-1.51-11.42-11.54-12.4-11.37ZM579.65,403.17l-109.94,109.73c-.78,1.07-.51,1.86,0,2.95.58,1.26,10.92,11.03,12.01,11.03l110.83-109.83c.93-1.16.11-1.64-.5-2.52-1.04-1.51-11.42-11.54-12.4-11.37ZM442.71,505.49c-.92-.86-1.52-3.74-2.92-1.61-.91,1.38-7.15,18.17-7.32,19.74s.11,1.63.77,2.76,14.6,15.02,15.68,15.23l20.85-7.75c1.69-2.31-1.55-2.32-3.09-3.95-7.89-8.35-15.59-16.58-23.97-24.43ZM436.31,546.8l-8.48-8.95-5.49,12.94,13.97-3.99Z"/>
          <path class="cls-2" d="M225.46,473.17c20.76,1.05,44.25-2.13,64.7-.26,5.66.52,6.96,1.74,7.48,7.49,1.4,15.37,1.4,46.6,0,61.97-.52,5.66-1.74,6.96-7.48,7.49-15.36,1.4-46.6,1.4-61.96,0-5.66-.52-6.96-1.74-7.48-7.49-1.32-14.48-1.63-48.8.03-62.94.38-3.24,1.36-5.42,4.72-6.25ZM285.62,484.93h-52.89v52.89h52.89v-52.89Z"/>
          <path class="cls-2" d="M232.74,257.38v52.89h52.89c.01-2.97-.63-7.4,2.05-9.42,11-5.61,11.39,9.38,9.71,16.7-.77,3.36-3.07,4.35-6.25,4.72-19.95,2.34-44.38-1.73-64.82-.08-3.89-.61-5.14-2.7-5.57-6.41-2.31-19.74,1.8-43.73-.03-63.94.19-3.1,3.33-6.28,6.49-6.49l54.72.27c7.5,1.73,4.35,11.76.21,11.76h-49.4Z"/>
          <path class="cls-2" d="M232.74,371.16v51.9h52.89c-2.85-8.07,7.78-15.12,11.46-6.97,1,2.2.87,12.57.07,15.01-.93,2.87-3.29,3.63-6.03,3.95-19.93,2.35-44.39-1.74-64.82-.08-3.89-.61-5.14-2.7-5.57-6.41-2.31-19.74,1.8-43.73-.03-63.94.05-3.68,3.19-5.08,6.51-5.46,16.6-1.92,36.84,1.42,53.85.09,8.64,1.36,5.29,11.91,1.06,11.91h-49.4Z"/>
          <path class="cls-2" d="M327.25,292.53l139.97.31c5.15,3.31,3.84,10.78-2.42,11.51h-135.82c-6.59-.78-7.64-8.96-1.73-11.82Z"/>
          <path class="cls-2" d="M327.25,405.3l139.97.31c5.15,3.31,3.84,10.78-2.42,11.51h-135.82c-6.59-.78-7.64-8.96-1.73-11.82Z"/>
          <path class="cls-2" d="M194.56,216.62c5.21-.94,6.88,2.81,7.29,7.28,2.6,28.52-2.05,60.94-.03,89.89-1.02,8.7-11.13,9.16-12.04-.97-2.57-28.56,2.03-60.92.03-89.89.02-2.88,1.76-5.77,4.75-6.31Z"/>
          <path class="cls-2" d="M327.25,263.58l90.62-.23c8.61.59,8.58,11.44,0,12.01l-91.89-.96c-4.01-3.16-3.27-8.68,1.27-10.83Z"/>
          <path class="cls-2" d="M327.25,376.36l90.62-.23c8.61.59,8.58,11.44,0,12.01l-91.89-.96c-4.01-3.16-3.27-8.68,1.27-10.83Z"/>
          <path class="cls-2" d="M327.25,491.13l90.62-.23c8.61.59,8.58,11.44,0,12.01l-91.89-.96c-4.01-3.16-3.27-8.68,1.27-10.83Z"/>
          <path class="cls-2" d="M301.34,376.41c2.62,2.49,2.21,6.8-.06,9.41l-30.1,24.36c-4.26,2.87-19.29-13.52-20.08-16.05-1.19-3.82,2.71-8,6.73-7.51,4.62.57,9.85,9.82,12.19,9.4l24.65-20.35c1.81-.96,5.24-.64,6.68.73Z"/>
          <path class="cls-2" d="M295.34,262.55c4.01-.83,7.81,1.14,7.99,5.5.11,2.74-3.77,5.95-5.72,7.82-7.68,7.37-17.71,13.97-25.66,21.24-2.11.47-4.24.55-6.27-.32-.93-.4-13.17-12.94-13.79-14.22-1.91-3.96.57-8.78,5.29-8.77,5.16.01,10.32,9.92,12.84,9.47,5.62-3.11,20.44-19.72,25.31-20.72Z"/>
          <path class="cls-2" d="M194.56,194.67c8.99-1.64,9.86,13.29,1.68,13.8-7.95.5-8.71-12.51-1.68-13.8Z"/>
        </g>
      </g>
    </g>
  </g>
</svg>